REM DIRINDEX 1\5,1\2\6,1\2\7,1\3\8,1\3\9,1\4\10,1\4\11,1\4\12
REM DIRNAME folder01,folder02,folder03,folder04,folder05,folder06,folder07,folder08,folder09,folder10,folder11,folder12
TITLE ""
FILE "EJE_DB3000_5th_4B_49.mp3" MP3
  TRACK 01 AUDIO
    TITLE "0:"
    INDEX 01 00:00:00
  TRACK 02 AUDIO
    TITLE "10:cjc026_10077"
    INDEX 01 00:00:05
  TRACK 03 AUDIO
    TITLE "0:"
    INDEX 01 00:02:22
  TRACK 04 AUDIO
    TITLE "11:cjc026_10078"
    INDEX 01 00:02:47
  TRACK 05 AUDIO
    TITLE "0:"
    INDEX 01 00:04:05
  TRACK 06 AUDIO
    TITLE "12:cjc026_10079"
    INDEX 01 00:04:33
  TRACK 07 AUDIO
    TITLE "0:"
    INDEX 01 00:06:47
  TRACK 08 AUDIO
    TITLE "10:cjc026_10080"
    INDEX 01 00:07:00
  TRACK 09 AUDIO
    TITLE "0:"
    INDEX 01 00:08:30
  TRACK 10 AUDIO
    TITLE "11:cjc026_10081"
    INDEX 01 00:08:60
  TRACK 11 AUDIO
    TITLE "0:"
    INDEX 01 00:10:10
  TRACK 12 AUDIO
    TITLE "12:cjc026_10082"
    INDEX 01 00:10:37
  TRACK 13 AUDIO
    TITLE "0:"
    INDEX 01 00:11:70
  TRACK 14 AUDIO
    TITLE "10:cjc026_10083"
    INDEX 01 00:12:22
  TRACK 15 AUDIO
    TITLE "0:"
    INDEX 01 00:13:24
  TRACK 16 AUDIO
    TITLE "11:cjc026_10084"
    INDEX 01 00:13:53
  TRACK 17 AUDIO
    TITLE "0:"
    INDEX 01 00:14:43
  TRACK 18 AUDIO
    TITLE "12:cjc026_10085"
    INDEX 01 00:14:70
  TRACK 19 AUDIO
    TITLE "0:"
    INDEX 01 00:15:72
  TRACK 20 AUDIO
    TITLE "10:cjc026_10086"
    INDEX 01 00:16:24
  TRACK 21 AUDIO
    TITLE "0:"
    INDEX 01 00:17:41
  TRACK 22 AUDIO
    TITLE "11:cjc026_10087"
    INDEX 01 00:17:67
  TRACK 23 AUDIO
    TITLE "0:"
    INDEX 01 00:19:30
  TRACK 24 AUDIO
    TITLE "12:cjc026_10088"
    INDEX 01 00:19:56
  TRACK 25 AUDIO
    TITLE "0:"
    INDEX 01 00:20:71
  TRACK 26 AUDIO
    TITLE "10:cjc026_10089"
    INDEX 01 00:21:21
  TRACK 27 AUDIO
    TITLE "0:"
    INDEX 01 00:23:44
  TRACK 28 AUDIO
    TITLE "11:cjc026_10090"
    INDEX 01 00:23:69
  TRACK 29 AUDIO
    TITLE "0:"
    INDEX 01 00:25:01
  TRACK 30 AUDIO
    TITLE "12:cjc026_10091"
    INDEX 01 00:25:27
  TRACK 31 AUDIO
    TITLE "0:"
    INDEX 01 00:27:47
  TRACK 32 AUDIO
    TITLE "10:cjc026_10092"
    INDEX 01 00:28:00
  TRACK 33 AUDIO
    TITLE "0:"
    INDEX 01 00:29:11
  TRACK 34 AUDIO
    TITLE "11:cjc026_10093"
    INDEX 01 00:29:40
  TRACK 35 AUDIO
    TITLE "0:"
    INDEX 01 00:31:06
  TRACK 36 AUDIO
    TITLE "12:cjc026_10094"
    INDEX 01 00:31:31
  TRACK 37 AUDIO
    TITLE "0:"
    INDEX 01 00:32:43
  TRACK 38 AUDIO
    TITLE "10:cjc026_10095"
    INDEX 01 00:32:72
  TRACK 39 AUDIO
    TITLE "0:"
    INDEX 01 00:34:06
  TRACK 40 AUDIO
    TITLE "11:cjc026_10096"
    INDEX 01 00:34:34
  TRACK 41 AUDIO
    TITLE "0:"
    INDEX 01 00:35:27
  TRACK 42 AUDIO
    TITLE "12:cjc026_10097"
    INDEX 01 00:35:57
  TRACK 43 AUDIO
    TITLE "0:"
    INDEX 01 00:36:66
  TRACK 44 AUDIO
    TITLE "10:cjc026_10098"
    INDEX 01 00:37:18
  TRACK 45 AUDIO
    TITLE "0:"
    INDEX 01 00:38:26
  TRACK 46 AUDIO
    TITLE "11:cjc026_10099"
    INDEX 01 00:38:53
  TRACK 47 AUDIO
    TITLE "0:"
    INDEX 01 00:39:70
  TRACK 48 AUDIO
    TITLE "12:cjc026_10100"
    INDEX 01 00:40:23
  TRACK 49 AUDIO
    TITLE "0:"
    INDEX 01 00:41:28
  TRACK 50 AUDIO
    TITLE "10:cjc026_10101"
    INDEX 01 00:41:55
  TRACK 51 AUDIO
    TITLE "0:"
    INDEX 01 00:42:65
  TRACK 52 AUDIO
    TITLE "11:cjc026_10102"
    INDEX 01 00:43:15
  TRACK 53 AUDIO
    TITLE "0:"
    INDEX 01 00:44:24
  TRACK 54 AUDIO
    TITLE "12:cjc026_10103"
    INDEX 01 00:44:50
  TRACK 55 AUDIO
    TITLE "0:"
    INDEX 01 00:45:59
  TRACK 56 AUDIO
    TITLE "10:cjc026_10104"
    INDEX 01 00:46:09
  TRACK 57 AUDIO
    TITLE "0:"
    INDEX 01 00:47:23
  TRACK 58 AUDIO
    TITLE "11:cjc026_10105"
    INDEX 01 00:47:48
  TRACK 59 AUDIO
    TITLE "0:"
    INDEX 01 00:49:16
  TRACK 60 AUDIO
    TITLE "12:cjc026_10106"
    INDEX 01 00:49:41
  TRACK 61 AUDIO
    TITLE "0:"
    INDEX 01 00:50:54
  TRACK 62 AUDIO
    TITLE "10:cjc026_10107"
    INDEX 01 00:51:07
  TRACK 63 AUDIO
    TITLE "0:"
    INDEX 01 00:52:14
  TRACK 64 AUDIO
    TITLE "11:cjc026_10108"
    INDEX 01 00:52:39
  TRACK 65 AUDIO
    TITLE "0:"
    INDEX 01 00:53:43
  TRACK 66 AUDIO
    TITLE "12:cjc026_10109"
    INDEX 01 00:53:68
  TRACK 67 AUDIO
    TITLE "0:"
    INDEX 01 00:55:01
  TRACK 68 AUDIO
    TITLE "10:cjc026_10110"
    INDEX 01 00:55:28
  TRACK 69 AUDIO
    TITLE "0:"
    INDEX 01 00:56:51
  TRACK 70 AUDIO
    TITLE "11:cjc026_10111"
    INDEX 01 00:57:11
  TRACK 71 AUDIO
    TITLE "0:"
    INDEX 01 00:58:26
  TRACK 72 AUDIO
    TITLE "12:cjc026_10112"
    INDEX 01 00:58:54
  TRACK 73 AUDIO
    TITLE "0:"
    INDEX 01 01:00:00
  TRACK 74 AUDIO
    TITLE "10:cjc026_10113"
    INDEX 01 01:00:35
  TRACK 75 AUDIO
    TITLE "0:"
    INDEX 01 01:02:26
  TRACK 76 AUDIO
    TITLE "11:cjc026_10114"
    INDEX 01 01:02:52
  TRACK 77 AUDIO
    TITLE "0:"
    INDEX 01 01:04:56
  TRACK 78 AUDIO
    TITLE "12:cjc026_10115"
    INDEX 01 01:05:09
  TRACK 79 AUDIO
    TITLE "0:"
    INDEX 01 01:06:73
  TRACK 80 AUDIO
    TITLE "10:cjc026_10116"
    INDEX 01 01:07:25
  TRACK 81 AUDIO
    TITLE "0:"
    INDEX 01 01:08:40
  TRACK 82 AUDIO
    TITLE "11:cjc026_10117"
    INDEX 01 01:08:68
  TRACK 83 AUDIO
    TITLE "0:"
    INDEX 01 01:10:59
  TRACK 84 AUDIO
    TITLE "12:cjc026_10118"
    INDEX 01 01:11:09
  TRACK 85 AUDIO
    TITLE "0:"
    INDEX 01 01:12:24
